<svg width="253" height="259" viewBox="0 0 253 259" fill="none" xmlns="http://www.w3.org/2000/svg">
<path d="M182.067 19.1869C200.307 25.5565 222.022 30.768 225.496 43.7967C228.97 57.1149 214.205 78.2503 211.309 98.2277C208.704 117.915 217.968 135.866 213.047 146.289C207.835 156.712 188.437 159.318 172.802 172.926C156.878 186.823 145.008 211.722 127.347 221.856C109.396 232.279 85.6548 227.646 74.3633 211.143C63.0717 194.93 64.2299 166.845 60.466 146.289C56.7022 125.733 48.0164 112.704 44.542 97.6486C41.0677 82.5932 42.5154 65.5112 48.8849 49.2977C54.965 33.0842 65.967 17.7393 80.7329 9.05347C95.7882 0.367669 114.318 -1.65902 131.4 1.23625C148.482 4.42104 163.537 12.5278 182.067 19.1869Z" fill="url(#paint0_linear)"/>
<path d="M89.2811 37.9329C89.2811 37.9329 92.5659 38.192 92.8485 42.7364C93.131 47.2809 93.1546 60.4669 86.9854 61.2793C80.8162 62.0917 85.2547 39.6165 85.2547 39.6165L89.2811 37.9329Z" fill="#1C2226"/>
<path d="M67.8538 42.0065C67.8538 42.0065 65.3579 48.9645 70.3379 50.236C75.3298 51.5075 74.3997 41.4178 74.3997 41.4178L67.8538 42.0065Z" fill="#1C2226"/>
<path d="M96.2273 85.7088L111.662 107.466L110.803 105.429L117.925 137.358L125.861 135.875L120.951 103.533C120.845 102.827 120.574 102.191 120.198 101.65L120.092 101.497L104.657 79.7397L96.2273 85.7088Z" fill="#FCC9A7"/>
<path d="M123.835 147.153C127.897 145.941 130.193 141.655 128.98 137.605C127.768 133.543 123.482 131.248 119.432 132.46C115.371 133.673 113.075 137.958 114.287 142.008C115.5 146.058 119.774 148.366 123.835 147.153Z" fill="#FCC9A7"/>
<path d="M62.8149 84.9671L53.0549 114.8L58.294 111.245L26.5063 110.385L26 118.45L57.6465 121.57C60.0011 121.806 62.1203 120.346 62.8267 118.191L62.8856 118.015L72.6456 88.1812L62.8149 84.9671Z" fill="#FCC9A7"/>
<path d="M64.5455 237.56L59.7656 250.734L52.7723 244.447L57.2343 233.887L64.5455 237.56Z" fill="#FCC9A7"/>
<path d="M62.5323 247.685C62.5323 247.038 61.979 246.614 61.4257 246.849C60.3425 247.308 58.5412 247.709 56.4102 246.755C54.1851 245.754 53.7731 244.118 53.7731 243.035C53.7731 242.47 53.3728 242.046 52.8548 242.116L36.5724 244.459C35.5834 244.6 34.6533 245.177 33.994 246.06C33.37 246.884 33.6643 248.097 34.5355 248.356L58.8473 255.75C59.801 256.044 60.837 255.349 61.1195 254.243L62.497 248.804C62.5205 248.709 62.5323 248.615 62.5323 248.533V247.685Z" fill="#1F252A"/>
<path d="M128.121 228.612L133.419 238.985L127.25 244.259L120.586 231.815L128.121 228.612Z" fill="#FCC9A7"/>
<path d="M134.526 236.701C134.031 236.289 133.348 236.43 133.172 237.007C132.819 238.137 131.971 239.762 129.852 240.774C127.65 241.822 126.131 241.069 125.307 240.374C124.872 240.009 124.283 240.044 124.012 240.48L115.253 254.408C114.723 255.255 114.558 256.327 114.806 257.398C115.029 258.411 116.136 258.964 116.913 258.469L138.293 244.718C139.129 244.177 139.282 242.94 138.623 242.01L135.362 237.442C135.303 237.372 135.244 237.301 135.173 237.242L134.526 236.701Z" fill="#1F252A"/>
<path d="M69.9494 131.318L90.8587 189.325L120.457 238.372L133.654 231.85L107.341 182.956L92.9073 134.05L69.9494 131.318Z" fill="#092330"/>
<path d="M102.255 132.178C102.255 132.178 106.211 139.654 100.065 151.604L80.9809 188.018L66.441 243.211L51.9952 238.172L65.817 182.355L80.7572 138.806L69.9376 131.33L102.255 132.178Z" fill="#0C2C40"/>
<path d="M84.254 67.731L100.536 71.0747C102.455 71.4632 104.151 72.5699 105.293 74.1592L115.653 88.5932L101.808 97.6468L106.8 137.17C106.8 137.17 101.16 154.429 66.759 140.666C66.759 140.666 69.7258 107.913 67.7361 86.58L68.7487 72.5345L84.254 67.731Z" fill="#DF945B"/>
<path d="M68.7368 72.5228L66.0289 73.5117C63.792 74.3241 62.0496 76.1254 61.3079 78.3976L55.6685 95.5983L72.2452 98.6594L68.7368 72.5228Z" fill="#DF945B"/>
<path d="M15.9338 112.116C15.9338 116.355 19.3717 119.792 23.61 119.792C27.8484 119.792 31.2744 116.355 31.2744 112.116C31.2744 107.878 27.8366 104.452 23.61 104.452C19.3717 104.452 15.9338 107.878 15.9338 112.116Z" fill="#FCC9A7"/>
<path d="M79.6505 72.7111L81.4989 73.7354C85.0897 73.441 88.4687 72.6758 88.1743 69.085L87.3148 58.5597L74.3054 59.631L75.1649 70.1563C75.4592 73.7472 76.0596 73.0054 79.6505 72.7111Z" fill="#FCC9A7"/>
<path d="M87.4916 59.8312C87.4916 59.8312 85.702 67.6251 79.1561 67.3543C73.4343 67.1071 73.9758 58.5597 73.9758 58.5597L87.4916 59.8312Z" fill="#F4BE9A"/>
<path d="M80.2745 64.5876L81.3812 64.4698C86.9146 63.8694 90.9175 58.9011 90.3288 53.3559L89.646 47.0454C89.0456 41.512 84.0773 37.5091 78.5321 38.0978L77.4254 38.2155C71.8919 38.8159 67.889 43.7842 68.4777 49.3294L69.1605 55.6399C69.761 61.1733 74.7293 65.1762 80.2745 64.5876Z" fill="#FCC9A7"/>
<path d="M100.854 94.8919L96.663 89.9472" stroke="#CE804A" stroke-width="0.7693" stroke-miterlimit="10" stroke-linecap="round" stroke-linejoin="round"/>
<path d="M68.3602 97.9412L67.7244 87.7338" stroke="#CE804A" stroke-width="0.7693" stroke-miterlimit="10" stroke-linecap="round" stroke-linejoin="round"/>
<path d="M79.6505 72.7111L87.9154 67.7193C91.4473 66.2476 93.696 69.6618 93.696 69.6618L83.8536 79.3159L79.6505 72.7111Z" fill="#EDA472"/>
<path d="M79.6506 72.7111L75.6477 78.9038L71.6448 71.6162C71.6448 71.6162 73.2224 69.1321 75.3769 69.7089L79.6506 72.7111Z" fill="#EDA472"/>
<path d="M58.082 112.434H8.05754C7.22164 112.434 6.5506 111.763 6.5506 110.927C6.5506 110.091 7.22164 109.42 8.05754 109.42H58.082C58.9179 109.42 59.5891 110.091 59.5891 110.927C59.5891 111.751 58.9179 112.434 58.082 112.434Z" fill="#D1D1D1"/>
<path d="M6.55051 110.539L0.569687 81.4822C0.416634 80.764 0.970013 80.0812 1.71173 80.0812H32.1455C32.6989 80.0812 33.1815 80.4697 33.2875 81.023L39.1859 110.55H6.55051V110.539Z" fill="#D1D1D1"/>
<path d="M3.94862 82.2945L9.52913 108.655H37.1256L31.5451 82.2945H3.94862Z" fill="#EFEFEF"/>
<path d="M88.9867 51.8489H85.6078L84.9485 48.1404C84.9485 48.1404 81.4165 46.2449 82.0994 42.5834C82.0994 42.5834 67.2298 47.9166 64.9105 41.9829C61.8494 34.1537 72.9516 32.2112 82.0994 32.4348C91.2472 32.6468 90.5879 44.3258 90.5879 44.3258L88.9867 51.8489Z" fill="#1C2226"/>
<path d="M87.0089 51.1072C87.2208 53.0851 88.9986 54.5097 90.9765 54.2978C92.9544 54.0859 94.379 52.3081 94.167 50.3302C93.9551 48.3523 92.1774 46.9277 90.1995 47.1396C88.2216 47.3516 86.797 49.1293 87.0089 51.1072Z" fill="#FCC9A7"/>
<path d="M147.243 163.212H183.422V220.619H147.243V163.212Z" fill="#B2B2B2"/>
<path d="M183.281 163.212H219.46V220.619H183.281V163.212Z" fill="#D1D1D1"/>
<path d="M202.236 93.597L203.778 124.455L211.031 147.083H197.974L191.193 127.586L189.074 105.429L202.236 93.597Z" fill="#F7EBE7"/>
<path d="M202.601 201.452L199.975 213.684L208.794 214.732L211.301 202.688L202.601 201.452Z" fill="#FCC9A7"/>
<path d="M199.446 212.577C199.669 211.918 200.376 211.683 200.859 212.106C201.8 212.942 203.496 213.967 206.003 213.719C208.605 213.46 209.582 211.93 209.959 210.823C210.159 210.246 210.713 209.952 211.207 210.199L226.995 218.134C227.949 218.617 228.702 219.512 229.079 220.63C229.432 221.678 228.726 222.808 227.737 222.785L200.458 222.031C199.387 222.008 198.563 220.948 198.657 219.724L199.104 213.719C199.116 213.625 199.128 213.519 199.163 213.425L199.446 212.577Z" fill="#1F252A"/>
<path d="M202.754 142.303H223.228C223.228 142.303 235.696 141.608 236.437 151.839C237.179 162.07 218.153 191.338 215.175 206.973L198.056 205.561L210.383 163.047L179.726 163.224C177.453 163.236 175.193 162.906 173.05 162.164C167.081 160.092 157.969 157.125 162.937 140.69L202.754 142.303Z" fill="#092330"/>
<path d="M186.954 201.499L182.787 216.121L191.605 217.169L195.655 202.735L186.954 201.499Z" fill="#FCC9A7"/>
<path d="M182.257 215.014C182.481 214.355 183.187 214.12 183.67 214.543C184.612 215.379 186.307 216.404 188.815 216.156C191.416 215.897 192.394 214.367 192.77 213.26C192.971 212.683 193.524 212.389 194.018 212.636L209.806 220.571C210.76 221.054 211.513 221.949 211.89 223.067C212.243 224.115 211.537 225.245 210.548 225.222L182.798 224.468C181.727 224.445 180.903 223.385 180.997 222.161L181.927 216.156C181.939 216.062 181.951 215.956 181.986 215.862L182.257 215.014Z" fill="#1F252A"/>
<path d="M178.289 81.4705C177.83 81.9179 157.286 87.157 157.286 87.157L161.677 98.8243L184.141 97.129L178.289 81.4705Z" fill="#F7EBE7"/>
<path d="M186.766 84.2843C186.766 84.2843 200.152 89.1702 202.236 93.597C201.518 99.8486 199.316 105.865 195.69 111.01C191.24 117.32 185.742 128.163 186.754 142.303H148.056C148.056 142.303 150.139 102.521 161.595 87.2512L186.766 84.2843Z" fill="#F7EBE7"/>
<path d="M182.375 90.5948C178.572 89.8178 176.123 86.1092 176.9 82.3064L179.172 71.1807L192.935 73.9945L190.663 85.1202C189.886 88.923 186.177 91.3718 182.375 90.5948Z" fill="#FCC9A7"/>
<path d="M178.23 75.0659C178.23 75.0659 179.679 84.0842 186.695 84.6257C192.841 85.0967 192.252 76.2079 192.252 76.2079L178.23 75.0659Z" fill="#F4BE9A"/>
<path d="M186.142 79.681L184.929 79.3984C178.843 77.9856 175.052 71.9106 176.464 65.8356L178.066 58.9012C179.478 52.8144 185.553 49.0235 191.628 50.4362L192.841 50.7188C198.928 52.1316 202.719 58.2066 201.306 64.2816L199.705 71.216C198.292 77.3028 192.217 81.0938 186.142 79.681Z" fill="#FCC9A7"/>
<path d="M180.279 68.7201C180.561 69.2028 180.832 69.9327 180.927 71.0394C181.032 72.4404 181.739 73.7708 182.916 74.5478C186.295 76.7848 188.873 71.1218 193.865 72.1226C193.865 72.1226 195.82 72.4169 196.208 74.5949C196.597 76.7612 199.316 72.9702 199.917 70.3801C200.517 67.79 200.823 83.2012 188.532 81.8944C188.532 81.8944 182.327 81.6942 178.148 75.372C177.689 74.6774 177.418 73.865 177.395 73.0291C177.359 71.7929 177.536 69.921 178.713 68.5788C179.125 68.0843 179.949 68.155 180.279 68.7201Z" fill="#1C2226"/>
<path d="M180.267 65.2235C180.267 65.2235 185.577 63.4692 184.682 55.7107C184.682 55.7107 197.868 68.1903 207.64 59.0307C207.64 59.0307 203.272 57.8652 201.471 54.8748C198.186 49.4238 188.744 41.9124 181.185 50.6011C181.185 50.6011 171.991 49.1765 174.628 63.3397L180.267 65.2235Z" fill="#1C2226"/>
<path d="M180.267 65.2235C179.761 67.3897 177.595 68.7437 175.428 68.2492C173.25 67.7429 171.908 65.5767 172.403 63.4104C172.909 61.2441 175.075 59.8902 177.242 60.3847C179.42 60.8909 180.773 63.0572 180.267 65.2235Z" fill="#FCC9A7"/>
<path d="M186.978 90.1592L181.291 90.2651L185.271 98.5064L189.568 90.6066L186.978 90.1592Z" fill="#0C2C40"/>
<path d="M176.417 81.8355L183.74 90.3829L178.972 95.8574L170.201 83.8016C170.201 83.8016 172.45 80.1872 176.417 81.8355Z" fill="#FFF7F3"/>
<path d="M186.978 90.1592L191.193 94.9156L194.16 87.4984C194.16 87.4984 193.383 84.1666 190.957 84.8024L186.978 90.1592Z" fill="#FFF7F3"/>
<path d="M185.424 95.8457C185.424 95.8457 190.922 110.185 189.556 130.53L184.141 135.474L177.818 129.388L184.635 94.9156L185.424 95.8457Z" fill="#0C2C40"/>
<path d="M175.146 129.894L186.919 133.767L187.696 140.678L172.085 136.016L175.146 129.894Z" fill="#FCC9A7"/>
<path d="M185.165 138.335C185.165 142.374 188.438 145.658 192.488 145.658C196.526 145.658 199.811 142.385 199.811 138.335C199.811 134.297 196.538 131.012 192.488 131.012C188.45 131.012 185.165 134.285 185.165 138.335Z" fill="#FCC9A7"/>
<path d="M186.766 142.303H207.228C207.228 142.303 219.696 141.608 220.438 151.839C221.179 162.07 200.753 193.222 197.774 208.845L180.656 207.432L194.383 163.036L163.726 163.212C161.454 163.224 159.193 162.894 157.05 162.153C151.081 160.08 141.969 157.114 146.937 140.678L186.766 142.303Z" fill="#0C2C40"/>
<path d="M248.493 106.124H213.115C211.949 106.124 210.948 106.936 210.701 108.078L204.037 139.324C203.708 140.855 204.885 142.303 206.451 142.303H242.418C243.595 142.303 244.608 141.467 244.832 140.313L250.907 109.067C251.213 107.537 250.047 106.124 248.493 106.124Z" fill="#B2B2B2"/>
<path d="M250.53 106.124H215.163C213.998 106.124 212.997 106.936 212.75 108.078L206.086 139.324C205.756 140.855 206.922 142.303 208.5 142.303H244.455C245.632 142.303 246.645 141.467 246.869 140.313L252.944 109.067C253.25 107.537 252.084 106.124 250.53 106.124Z" fill="#D1D1D1"/>
<path d="M205.003 139.63H180.832C180.091 139.63 179.502 140.231 179.502 140.961C179.502 141.702 180.102 142.291 180.832 142.291H205.474L205.003 139.63Z" fill="#B2B2B2"/>
<path d="M228.632 123.395C228.632 125.526 230.351 127.245 232.481 127.245C234.612 127.245 236.331 125.514 236.331 123.395C236.331 121.264 234.601 119.545 232.481 119.545C230.351 119.545 228.632 121.264 228.632 123.395Z" fill="white"/>
<path d="M165.727 98.271L152.8 119.145L183.74 130.188L179.502 139.348C179.502 139.348 153.047 136.381 140.262 126.527C139.084 125.62 138.496 124.149 138.696 122.677C139.296 117.968 141.863 106.536 152.8 90.2887C155.025 86.9804 159.452 85.9797 162.902 87.9811C166.492 90.0532 167.752 94.6448 165.727 98.271Z" fill="#F7EBE7"/>
<path d="M175.511 127.245L152.8 119.145L164.161 100.79" stroke="#EADDD8" stroke-width="0.7599" stroke-miterlimit="10" stroke-linecap="round" stroke-linejoin="round"/>
<path d="M190.887 120.334L196.479 105.57" stroke="#EADDD8" stroke-width="0.7599" stroke-miterlimit="10" stroke-linecap="round" stroke-linejoin="round"/>
<path d="M175.146 138.724C175.146 138.724 157.769 136.546 149.009 131.53" stroke="#EADDD8" stroke-width="0.7599" stroke-miterlimit="10" stroke-linecap="round" stroke-linejoin="round"/>
<defs>
<linearGradient id="paint0_linear" x1="42.7027" y1="227.407" x2="258.112" y2="155.544" gradientUnits="userSpaceOnUse">
<stop stop-color="#6CACE4"/>
<stop offset="0.0666667" stop-color="#6CACE4"/>
<stop offset="0.133333" stop-color="#6DADE4"/>
<stop offset="0.2" stop-color="#6FAEE5"/>
<stop offset="0.266667" stop-color="#72B0E5"/>
<stop offset="0.333333" stop-color="#75B3E6"/>
<stop offset="0.4" stop-color="#79B6E7"/>
<stop offset="0.466667" stop-color="#7DB9E8"/>
<stop offset="0.533333" stop-color="#82BDEA"/>
<stop offset="0.6" stop-color="#86C0EB"/>
<stop offset="0.666667" stop-color="#8AC3EC"/>
<stop offset="0.733333" stop-color="#8DC6ED"/>
<stop offset="0.8" stop-color="#90C8ED"/>
<stop offset="0.866667" stop-color="#92C9EE"/>
<stop offset="0.933333" stop-color="#93CAEE"/>
<stop offset="1" stop-color="#93CAEE"/>
</linearGradient>
</defs>
</svg>
